<?xml version="1.0" encoding="UTF-8"?>
<svg id="Layer_1" xmlns="http://www.w3.org/2000/svg" version="1.1" viewBox="0 0 140.48 140.48">
  <!-- Generator: Adobe Illustrator 30.6.0, SVG Export Plug-In . SVG Version: 2.1.4 Build 109)  -->
  <defs>
    <style>
      .st0 {
        fill: #fff;
      }

      .st1 {
        fill: #3157d5;
      }
    </style>
  </defs>
  <rect class="st1" width="140.48" height="140.48" rx="31.39" ry="31.39"/>
  <path class="st0" d="M119.33,39.98c-1.03-1.06-2.4-1.59-4.09-1.59-1.52,0-2.85.53-4,1.59-1.15,1.06-1.73,2.38-1.73,3.96v20.93h-29.03v-20.98c0-1.64-.58-2.97-1.73-4-1.15-1.03-2.46-1.55-3.91-1.55-1.82,0-3.31.82-4.46,2.46l-20.41,30.49-19.81-30.49c-.49-.73-1.2-1.32-2.14-1.77-.94-.46-1.84-.68-2.68-.68-1.58,0-2.93.55-4.05,1.64-1.12,1.09-1.68,2.4-1.68,3.91v52.69c0,1.58.48,2.9,1.46,3.96.97,1.06,2.21,1.59,3.73,1.59s2.85-.53,3.82-1.59c.97-1.06,1.46-2.38,1.46-3.96v-37.48l15.02,23.74c.55.67,1.23,1.24,2.05,1.73.82.49,1.62.7,2.41.64.85.06,1.68-.15,2.5-.64.82-.48,1.5-1.06,2.05-1.73l15.02-22.89v36.63c0,1.58.53,2.9,1.59,3.96,1.06,1.06,2.44,1.59,4.14,1.59s3.06-.53,4.1-1.59c1.03-1.06,1.55-2.38,1.55-3.96v-21.25h29.03v21.2c0,1.58.56,2.9,1.68,3.96,1.12,1.06,2.41,1.59,3.87,1.59,1.76,0,3.17-.53,4.23-1.59,1.06-1.06,1.59-2.38,1.59-3.96v-52.6c0-1.58-.52-2.9-1.55-3.96Z"/>
</svg>
